<?xml version="1.0" encoding="utf-8"?>
<!-- Generator: Adobe Illustrator 19.0.0, SVG Export Plug-In . SVG Version: 6.00 Build 0)  -->
<svg version="1.1" id="Warstwa_1" xmlns="http://www.w3.org/2000/svg" xmlns:xlink="http://www.w3.org/1999/xlink" x="0px" y="0px"
	 viewBox="0 0 14 14" style="enable-background:new 0 0 14 14;" xml:space="preserve">
<style type="text/css">
	.st0{fill:#457F9C;}
</style>
<g id="XMLID_2_">
	<g id="sort_1_">
		<path id="XMLID_3_" class="st0" d="M11,8.5c0,0.1,0,0.3-0.1,0.4l-3.5,3.5c-0.1,0.1-0.2,0.1-0.4,0.1s-0.3,0-0.4-0.1L3.1,8.9
			C3,8.8,3,8.6,3,8.5s0-0.3,0.1-0.4S3.4,8,3.5,8h7c0.1,0,0.3,0,0.4,0.1S11,8.4,11,8.5z M11,5.5c0,0.1,0,0.3-0.1,0.4S10.6,6,10.5,6
			h-7C3.4,6,3.2,6,3.1,5.9S3,5.6,3,5.5s0-0.3,0.1-0.4l3.5-3.5C6.7,1.5,6.9,1.5,7,1.5s0.3,0,0.4,0.1l3.5,3.5C11,5.2,11,5.4,11,5.5z"
			/>
	</g>
</g>
</svg>
